IKResults
version=1
nRows=14
nColumns=40
inDegrees=yes

Units are S.I. units (second, meters, Newtons, ...)
Angles are in degrees.

endheader
time	pelvis_tilt	pelvis_list	pelvis_rotation	pelvis_tx	pelvis_ty	pelvis_tz	hip_flexion_r	hip_adduction_r	hip_rotation_r	knee_angle_r	knee_angle_r_beta	ankle_angle_r	subtalar_angle_r	mtp_angle_r	hip_flexion_l	hip_adduction_l	hip_rotation_l	knee_angle_l	knee_angle_l_beta	ankle_angle_l	subtalar_angle_l	mtp_angle_l	lumbar_extension	lumbar_bending	lumbar_rotation	arm_flex_r	arm_add_r	arm_rot_r	elbow_flex_r	pro_sup_r	wrist_flex_r	wrist_dev_r	arm_flex_l	arm_add_l	arm_rot_l	elbow_flex_l	pro_sup_l	wrist_flex_l	wrist_dev_l
      2.36000000	     15.29078764	     -1.17220343	      1.19606616	      0.00254676	      0.96129437	      1.46595931	    -14.61476393	      2.89131496	    -15.65685473	    -10.36544995	     -0.18091123	      5.82238727	     10.45914530	     -6.89991056	    -11.74685911	      2.14258305	      8.41059838	    -33.71445906	     -0.58842832	     13.07440025	     16.84346138	      2.44624167	    -23.30812184	      3.64623543	     -1.26491639	      2.17515955	    -11.53250893	      5.49319894	     23.66555628	     89.95437384	      0.00000000	      0.00000000	      6.98700658	      6.78723321	      6.72724753	     20.62090091	     89.95437384	      0.00000000	      0.00000000
      2.37000000	     15.47163895	     -0.98798842	      0.91424919	      0.00727399	      0.96147797	      1.46706330	    -15.15647960	      2.60406238	    -15.90405522	    -10.37939069	     -0.18115454	      6.13462698	     11.58979928	     -6.94419485	    -11.42792472	      2.02548472	      9.46140683	    -32.51132975	     -0.56742975	     13.26724342	     16.48607973	      2.61019544	    -23.52747256	      3.32687748	     -0.89108401	      2.17677585	    -11.62232612	      5.52794405	     23.99033926	     89.95437384	      0.00000000	      0.00000000	      6.75898679	      6.80337110	      7.17672289	     20.56730944	     89.95437384	      0.00000000	      0.00000000
      2.38000000	     15.33917292	     -1.01862493	      0.93457682	      0.01178189	      0.96109007	      1.46797355	    -15.38706630	      2.70685619	    -16.02314151	    -10.24888392	     -0.17887677	      6.48095569	     12.08156831	     -6.84185323	    -10.50295837	      2.25023426	     10.24723940	    -31.75430433	     -0.55421716	     13.58501459	     16.20031557	      2.64710038	    -23.39758838	      3.31450508	     -0.70316864	      2.17704744	    -11.69656315	      5.50585405	     24.24035457	     89.95437384	      0.00000000	      0.00000000	      6.47959298	      6.86154255	      7.30491115	     20.49609859	     89.95437384	      0.00000000	      0.00000000
      2.39000000	     15.13484873	     -0.93743042	      1.03757047	      0.01601223	      0.96060137	      1.46871501	    -15.45098349	      2.71563761	    -16.25211049	    -10.29258033	     -0.17963942	      6.76398283	     11.65412366	     -6.74710108	     -9.40375920	      2.37784531	     11.01224483	    -31.06424460	     -0.54217335	     13.73830035	     15.93327980	      2.63498039	    -23.21476019	      3.20482023	     -0.65865883	      2.28310115	    -11.71481083	      5.54583639	     24.34147267	     89.95437384	      0.00000000	      0.00000000	      6.25131782	      6.97801037	      7.26699787	     20.39520490	     89.95437384	      0.00000000	      0.00000000
      2.40000000	     14.98132800	     -0.89559788	      1.13283316	      0.02030457	      0.96015598	      1.46945794	    -15.61437961	      2.76182309	    -16.44771727	    -10.25476055	     -0.17897934	      7.02238636	     11.42644149	     -6.69169306	     -8.40810294	      2.52478327	     11.70412057	    -30.28207177	     -0.52852186	     13.88670350	     15.71949424	      2.62568728	    -23.07927776	      3.12386840	     -0.59488148	      2.36468493	    -11.73503261	      5.57281160	     24.44293518	     89.95437384	      0.00000000	      0.00000000	      6.03328883	      7.08264819	      7.25913581	     20.28548195	     89.95437384	      0.00000000	      0.00000000
      2.41000000	     15.68855535	     -0.53907647	      0.47026605	      0.02581400	      0.96112129	      1.47058956	    -17.00462899	      2.26591393	    -15.92341574	     -9.77268672	     -0.17056556	      7.10723887	     12.29661371	     -6.81461298	     -9.15143508	      2.09127138	     13.17409595	    -28.18819642	     -0.49197684	     13.40992913	     14.84166676	      2.42420381	    -23.79156080	      2.51837694	      0.07929533	      2.16832344	    -11.92368958	      5.70765549	     24.98449183	     89.95437384	      0.00000000	      0.00000000	      5.71347264	      7.05902122	      7.62428787	     20.30204722	     89.95437384	      0.00000000	      0.00000000
      2.42000000	     15.42004828	     -0.52286875	      0.63402812	      0.02996562	      0.96048002	      1.47111987	    -16.99769681	      2.35739591	    -16.15925123	     -9.79853096	     -0.17101663	      7.40780758	     11.91666872	     -6.72625628	     -7.94930244	      2.26887073	     13.81432194	    -27.51856374	     -0.48028954	     13.46002899	     14.52528416	      2.39011682	    -23.54912908	      2.49968826	      0.06604238	      2.24994038	    -11.94178839	      5.74260430	     25.09050595	     89.95437384	      0.00000000	      0.00000000	      5.48199054	      7.16528381	      7.56751268	     20.20630351	     89.95437384	      0.00000000	      0.00000000
      2.43000000	     15.75783649	     -0.28397235	      0.38368280	      0.03524774	      0.96078460	      1.47185751	    -17.94410340	      2.08335927	    -15.99310754	     -9.39752191	     -0.16401770	      7.63909280	     12.71195312	     -6.81033431	     -7.97316981	      2.08889126	     14.93445435	    -25.92819541	     -0.45253238	     12.79851555	     13.12843314	      1.99234993	    -23.82308239	      2.12918522	      0.35445504	      2.15173346	    -12.04318320	      5.90659897	     25.36007298	     89.95437384	      0.00000000	      0.00000000	      5.16322165	      7.19478833	      7.76418635	     20.12749923	     89.95437384	      0.00000000	      0.00000000
      2.44000000	     15.74593391	     -0.13542434	      0.35069579	      0.03971273	      0.96055880	      1.47235908	    -18.30450927	      1.94109010	    -16.06726652	     -9.30441551	     -0.16239269	      7.87654475	     12.94774291	     -6.81936576	     -7.30493918	      2.06401987	     15.81973298	    -24.82592351	     -0.43329411	     12.27054131	     11.88053797	      1.61350781	    -23.83806212	      1.92300255	      0.46495877	      2.19888313	    -12.10448159	      6.04507788	     25.48558950	     89.95437384	      0.00000000	      0.00000000	      4.93709572	      7.25649414	      7.80747982	     20.05193196	     89.95437384	      0.00000000	      0.00000000
      2.45000000	     15.49667506	     -0.10501914	      0.51161190	      0.04384889	      0.95987763	      1.47268289	    -18.27405523	      1.98560478	    -16.24812123	     -9.43745765	     -0.16471471	      8.09435652	     12.55848284	     -6.73038422	     -6.10801302	      2.17432102	     16.34068939	    -24.23727711	     -0.42302029	     12.11040064	     11.51201281	      1.56994677	    -23.63110374	      1.89433305	      0.43231493	      2.22434265	    -12.12598565	      6.04516759	     25.66743864	     89.95437384	      0.00000000	      0.00000000	      4.67831993	      7.33578870	      7.77105868	     20.02502733	     89.95437384	      0.00000000	      0.00000000
      2.46000000	     15.83126824	      0.10033760	      0.20223859	      0.04929595	      0.96004216	      1.47346222	    -19.09350923	      1.65809797	    -16.44109394	     -9.27416885	     -0.16186478	      8.31571032	     13.65329081	     -7.23928386	     -6.03215517	      2.31750006	     18.64600037	    -22.92994828	     -0.40020309	     10.43480876	      7.75931975	     -1.35433193	    -23.88274511	      1.52776058	      0.77267586	      2.05896267	    -12.19989529	      6.10877112	     25.95672367	     89.95437384	      0.00000000	      0.00000000	      4.34300111	      7.35676406	      8.02623644	     19.99172123	     89.95437384	      0.00000000	      0.00000000
      2.47000000	     15.54495630	      0.12352395	      0.35985065	      0.05347641	      0.95932066	      1.47360125	    -19.00773078	      1.70824538	    -16.54524405	     -9.42428182	     -0.16448475	      8.53788794	     13.21097296	     -7.13994902	     -4.80162131	      2.36956782	     18.96257923	    -22.34366871	     -0.38997059	     10.02198148	      7.48278535	     -1.32289512	    -23.62594364	      1.52501580	      0.72394138	      2.08913636	    -12.21793867	      6.11787337	     26.09137988	     89.95437384	      0.00000000	      0.00000000	      4.09231936	      7.41422065	      7.98506451	     19.93063892	     89.95437384	      0.00000000	      0.00000000
      2.48000000	     15.89908267	      0.47961575	      0.07516655	      0.05870436	      0.95961502	      1.47405345	    -19.83062515	      1.25078605	    -16.53092929	     -9.26233374	     -0.16165822	      8.73287075	     13.79934089	     -7.40112645	     -4.83169030	      2.20738785	     20.83223374	    -20.87664478	     -0.36436619	      7.30798943	      3.59194483	     -2.85462291	    -23.93742012	      1.02642778	      0.93198598	      2.02013730	    -12.23368477	      6.07761760	     26.26095608	     89.95437384	      0.00000000	      0.00000000	      3.83117228	      7.41002028	      8.42721065	     19.78657771	     89.95437384	      0.00000000	      0.00000000
      2.49000000	     15.68883973	      0.67808218	      0.25078112	      0.06294539	      0.95910820	      1.47402117	    -19.93696336	      1.15252487	    -16.47443188	     -9.20424067	     -0.16064430	      9.12795079	     13.60669360	     -7.36305313	     -3.85306716	      2.00472550	     20.89339049	    -19.94910447	     -0.34817756	      5.70011135	      2.65476308	     -2.92189294	    -23.77245955	      0.84105934	      0.80206059	      2.04799785	    -12.21507164	      6.04883197	     26.34974095	     89.95437384	      0.00000000	      0.00000000	      3.68992581	      7.45409693	      8.51898146	     19.57271172	     89.95437384	      0.00000000	      0.00000000
